<?xml version="1.0" encoding="UTF-8"?>
<svg width="105px" height="139px" viewBox="0 0 105 139" version="1.1" xmlns="http://www.w3.org/2000/svg" xmlns:xlink="http://www.w3.org/1999/xlink">
    <title>Fill 9</title>
    <defs>
        <linearGradient x1="100%" y1="57.3757846%" x2="0%" y2="57.3757846%" id="linearGradient-1">
            <stop stop-color="#6E44F2" offset="0%"></stop>
            <stop stop-color="#B792FD" offset="100%"></stop>
        </linearGradient>
    </defs>
    <g id="页面-1" stroke="none" stroke-width="1" fill="none" fill-rule="evenodd">
        <g id="Fill-10" transform="translate(0.588836, -0.000584)" fill="url(#linearGradient-1)">
            <path d="M23.5946837,33.6693114 L23.6624675,7.0141599 L6.31829177,20.0539579 L23.5946837,33.6693114 Z M40.8061161,47.2337559 C47.6141499,42.4695134 55.5293188,39.9608266 63.7495147,39.9820387 C66.1162985,39.9876953 68.5042647,40.2196144 70.8879945,40.6678973 L28.2604675,7.07638212 L28.1842107,37.285271 L40.8061161,47.2337559 Z M40.2779675,57.6305235 C42.6419269,57.6361801 45.0298931,57.8680993 47.4107985,58.3163821 L40.7778729,53.0883013 C39.0366769,54.5674932 37.4635283,56.1598165 36.0866702,57.8426448 C37.4832985,57.6984023 38.8841634,57.6262811 40.2779675,57.6305235 L40.2779675,57.6305235 Z M28.1277242,59.4971902 C28.5993864,59.3472912 29.075285,59.2058771 29.554008,59.0729478 C31.5578661,55.8515336 34.0969337,52.8733518 37.1090756,50.1977963 L28.1700891,43.1497155 L28.1277242,59.4971902 Z M4.65476475,79.2272912 C8.79239988,71.3278973 15.3716634,65.0491094 23.5254877,61.2804225 L23.580562,39.5337559 L4.79315664,24.724867 L4.65476475,79.2272912 Z M64.1180891,65.6034528 L64.3129675,65.8438569 C74.4918323,73.515574 80.3819607,85.3519377 80.349481,98.2163821 C80.3438323,103.454362 79.2917715,108.717796 77.302035,113.566887 C90.4619742,108.01214 99.1891364,94.9935538 99.2231431,80.5537559 C99.2724539,60.7840589 83.354562,44.6628468 63.7410418,44.613241 C56.9188864,44.5963821 50.3240891,46.5280993 44.5921229,50.2133518 L64.1180891,65.6034528 Z M32.5435553,63.094766 C29.6359134,68.3638569 28.0952445,74.3301195 28.0795893,80.3769882 C28.0288729,100.149513 43.9467647,116.274968 63.560285,116.324547 C66.1501904,116.330119 68.7443323,116.048705 71.2833999,115.494362 C74.1910418,110.221029 75.7331229,104.254766 75.7487714,98.2078973 C75.7980823,78.4396144 59.8801904,62.3113316 40.2666702,62.2617067 C37.6598188,62.254766 35.0670891,62.5361801 32.5435553,63.094766 L32.5435553,63.094766 Z M23.5127783,66.4462811 C12.0135418,72.6274932 4.6378188,84.8711296 4.60521764,98.025473 C4.55450123,117.79517 20.4723931,133.914968 40.0859134,133.964584 L40.0972107,133.964584 C50.8042242,133.992746 60.9972107,129.084261 67.7515823,120.736584 C66.3507175,120.879412 64.9427918,120.951534 63.551812,120.948705 C41.3963999,120.89214 23.4209877,102.686483 23.4774742,80.3614326 L23.5127783,66.4462811 Z M40.0746161,138.600149 C17.9192039,138.544867 -0.0576203875,120.33921 0.000138795524,98.0141599 L0.196568802,19.8701195 L0.261528261,19.6919377 C0.197980964,19.23517 0.524190423,18.5521397 1.10317691,18.1137559 L24.5803729,0.463856872 C24.9814269,0.158402327 25.4601499,-0.00139565319 25.9614675,9.18334877e-06 C26.4740823,0.00143262964 26.976812,0.178200306 27.3792783,0.494967983 L87.5896364,47.9521397 L87.7972242,48.1996144 C97.9690283,55.8784023 103.853508,67.7119377 103.821162,80.565069 C103.781488,98.6830488 91.6467783,114.647291 74.2658864,119.509109 C66.8322647,131.503857 54.0747918,138.635372 40.0746161,138.600149 L40.0746161,138.600149 Z" id="Fill-9"></path>
        </g>
    </g>
</svg>