<?xml version="1.0" encoding="utf-8"?>
<!-- Generator: Adobe Illustrator 27.7.0, SVG Export Plug-In . SVG Version: 6.00 Build 0)  -->
<svg version="1.1" id="Layer_1" xmlns="http://www.w3.org/2000/svg" xmlns:xlink="http://www.w3.org/1999/xlink" x="0px" y="0px"
	 viewBox="0 0 1000 296" style="enable-background:new 0 0 1000 296;" xml:space="preserve">
<style type="text/css">
	.st0{fill:#FFFFFF;}
	.st1{fill:#121212;}
	.st2{fill:#363636;}
	.st3{fill:#FFD863;}
	.st4{fill:#FFC108;}
</style>
<g>
	<path class="st0" d="M376.4,116.2l-21.9,87.9H325l-22.5-87.9H328l11.8,68.9l12.4-68.9C352.2,116.2,376.4,116.2,376.4,116.2z"/>
	<path class="st0" d="M441.4,186.9c0.7,1.3,1.8,2.4,3.5,3.1l-5.1,16.4c-4.8-0.4-8.6-1.6-11.7-3.4c-3-1.8-5.4-4.7-7-8.5
		c-5.1,8.3-12.3,12.4-21.7,12.4c-7.3,0-13.1-2.5-17.4-7.5s-6.5-11.7-6.5-19.9c0-9.6,3-16.9,8.9-21.9s14.7-7.5,26.2-7.5h5.3v-4.6
		c0-5.3-0.8-9-2.4-11s-4.5-3.1-8.5-3.1c-5.1,0-11.4,1.5-18.9,4.5l-5.6-15.9c4.5-2.1,9.4-3.7,14.5-4.8c5.1-1.1,10-1.7,14.7-1.7
		c10.4,0,18.1,2.5,23.2,7.5s7.6,12.7,7.6,23.1v36.8C440.5,183.6,440.8,185.6,441.4,186.9z M412.1,187.1c1.5-1.4,2.8-3.5,3.8-6.1
		v-17.1h-3c-4.5,0-7.8,1.1-9.9,3.2s-3.1,5.6-3.1,10.2c0,3.9,0.6,6.8,1.8,8.9c1.2,2,2.9,3.1,5.1,3.1
		C408.9,189.2,410.6,188.5,412.1,187.1z"/>
	<path class="st0" d="M459,200.8c-3.9-4.1-5.8-9.7-5.8-16.7V81.3l25-2.7V183c0,2.8,1.2,4.1,3.5,4.1c0.7,0,1.7-0.2,3-0.5l4.5,17.2
		c-1.8,0.9-3.9,1.6-6.3,2.2c-2.4,0.6-5,0.9-7.6,0.9C468.3,207,462.9,204.9,459,200.8z"/>
	<path class="st0" d="M518.7,74.6c2.6,2.7,3.9,6.2,3.9,10.3c0,4.1-1.3,7.5-4,10.2s-6.1,4.1-10.3,4.1s-7.6-1.3-10.3-4.1
		c-2.6-2.7-4-6.1-4-10.2c0-4.2,1.3-7.6,4-10.3c2.6-2.7,6.1-4.1,10.3-4.1C512.7,70.5,516.1,71.9,518.7,74.6z M521.1,116.2v87.9h-25
		v-87.9C496.1,116.2,521.1,116.2,521.1,116.2z"/>
	<path class="st0" d="M603.9,81.3v122.9h-22.4l-0.8-9.3c-2.5,3.8-5.4,6.7-8.6,8.9s-7.1,3.2-11.6,3.2c-9,0-16-4.1-20.7-12.2
		s-7.1-19.7-7.1-34.7c0-9.4,1.3-17.6,3.8-24.7s6.1-12.5,10.6-16.3s9.7-5.7,15.4-5.7c6.6,0,12.1,2.7,16.4,8.1V78.6L603.9,81.3z
		 M578.9,180v-41.1c-1.4-2.4-2.9-4.2-4.3-5.4s-3.1-1.7-5-1.7c-7.5,0-11.3,9.4-11.3,28.3c0,10.7,0.9,18.1,2.7,22.3s4.3,6.2,7.5,6.2
		C572.5,188.6,575.9,185.7,578.9,180z"/>
	<path class="st0" d="M680.1,186.9c0.7,1.3,1.8,2.4,3.5,3.1l-5.1,16.4c-4.8-0.4-8.6-1.6-11.7-3.4c-3-1.8-5.4-4.7-7-8.5
		c-5.1,8.3-12.3,12.4-21.7,12.4c-7.3,0-13.1-2.5-17.4-7.5c-4.3-5-6.5-11.7-6.5-19.9c0-9.6,3-16.9,8.9-21.9s14.7-7.5,26.2-7.5h5.3
		v-4.6c0-5.3-0.8-9-2.4-11c-1.6-2-4.5-3.1-8.5-3.1c-5.1,0-11.4,1.5-18.9,4.5l-5.6-15.9c4.5-2.1,9.4-3.7,14.5-4.8
		c5.1-1.1,10-1.7,14.7-1.7c10.4,0,18.1,2.5,23.2,7.5s7.6,12.7,7.6,23.1v36.8C679.1,183.6,679.4,185.6,680.1,186.9z M650.8,187.1
		c1.5-1.4,2.8-3.5,3.8-6.1v-17.1h-3c-4.5,0-7.8,1.1-9.8,3.2s-3.1,5.6-3.1,10.2c0,3.9,0.6,6.8,1.8,8.9s2.9,3.1,5.1,3.1
		C647.5,189.2,649.2,188.5,650.8,187.1z"/>
	<path class="st0" d="M742.5,200c-2.8,2.3-6,4.1-9.6,5.2c-3.6,1.2-7.3,1.7-11.1,1.7c-8.5,0-14.9-2.4-19.2-7.3s-6.5-11.4-6.5-19.5
		v-46.4H687v-17.6h9.1V97l25-2.8v22h16.4l-2.7,17.6H721V180c0,4.8,2,7.1,6,7.1c2.2,0,4.6-0.8,7.1-2.3L742.5,200z"/>
	<path class="st0" d="M805.5,125.2c6.5,7.8,9.7,19.5,9.7,35.1c0,14.9-3.2,26.4-9.7,34.5S790.1,207,778.6,207s-20.5-3.9-26.9-11.8
		c-6.5-7.9-9.7-19.6-9.7-35c0-15.1,3.2-26.7,9.7-34.7s15.4-12,26.9-12C790.1,113.4,799,117.3,805.5,125.2z M770.2,138.3
		c-1.7,4.2-2.6,11.5-2.6,21.8c0,10.6,0.8,18,2.6,22.2c1.7,4.2,4.5,6.3,8.4,6.3s6.7-2.1,8.4-6.4c1.7-4.2,2.6-11.6,2.6-21.9
		c0-10.5-0.9-17.8-2.6-22s-4.5-6.3-8.4-6.3C774.7,132,771.9,134.1,770.2,138.3z"/>
	<path class="st0" d="M876.5,115.1l-4.1,24c-2-0.7-4-1-6.1-1c-4.1,0-7.2,1.6-9.2,4.7s-3.7,7.9-5,14.2v47.2h-25v-87.9h21.7l1.8,14.4
		c4.2-11.3,10.5-16.9,19-16.9C871.8,113.7,874.1,114.2,876.5,115.1z"/>
</g>
<g>
	<path class="st0" d="M876.5,200.3c0.7,0.7,1,1.6,1,2.6s-0.3,1.9-1,2.6s-1.5,1.1-2.6,1.1s-1.9-0.4-2.6-1.1c-0.7-0.7-1-1.6-1-2.6
		s0.3-1.9,1-2.6c0.7-0.7,1.5-1.1,2.6-1.1S875.8,199.6,876.5,200.3z"/>
	<path class="st0" d="M892.2,183.5c1,0.4,2,1.1,2.9,2.1l-2.6,3.5c-1.2-0.9-2.2-1.4-3.3-1.4c-1.2,0-2,0.5-2.6,1.6s-0.8,2.9-0.8,5.6
		c0,2.5,0.3,4.3,0.9,5.3s1.4,1.5,2.5,1.5c0.6,0,1.1-0.1,1.5-0.3c0.5-0.2,1-0.5,1.6-1l2.7,3.6c-1.8,1.7-3.9,2.6-6.3,2.6
		c-3,0-5.4-1-7-3s-2.5-4.9-2.5-8.7c0-2.5,0.4-4.6,1.2-6.4c0.8-1.8,1.9-3.2,3.3-4.1c1.4-1,3.1-1.4,5-1.4
		C890,182.8,891.2,183.1,892.2,183.5z"/>
	<path class="st0" d="M911.3,185.8c1.6,2,2.5,4.9,2.5,8.9c0,3.8-0.8,6.7-2.5,8.8s-3.9,3.1-6.8,3.1s-5.2-1-6.8-3s-2.5-5-2.5-8.9
		c0-3.8,0.8-6.8,2.5-8.8c1.6-2,3.9-3,6.8-3S909.7,183.8,911.3,185.8z M902.3,189.1c-0.4,1.1-0.7,2.9-0.7,5.5c0,2.7,0.2,4.6,0.7,5.6
		c0.4,1.1,1.1,1.6,2.1,1.6s1.7-0.5,2.1-1.6c0.4-1.1,0.7-2.9,0.7-5.6c0-2.7-0.2-4.5-0.7-5.6c-0.4-1.1-1.1-1.6-2.1-1.6
		S902.8,188.1,902.3,189.1z"/>
	<path class="st0" d="M941.1,184.6c0.9,1.1,1.3,2.7,1.3,4.6v16.6h-6.2v-16c0-0.8-0.1-1.3-0.3-1.7s-0.5-0.5-0.9-0.5
		c-0.8,0-1.6,0.8-2.4,2.5v15.7h-6.1v-16c0-1.4-0.4-2.2-1.2-2.2s-1.6,0.8-2.4,2.5v15.7h-6.2v-22.3h5.5l0.4,2.7
		c1.4-2.3,3.2-3.4,5.2-3.4c1,0,1.9,0.3,2.6,0.9c0.7,0.6,1.3,1.5,1.7,2.6c1.5-2.4,3.2-3.6,5.4-3.6C939,182.8,940.2,183.4,941.1,184.6
		z"/>
</g>
<g>
	<g>
		<rect x="142.2" y="159.4" class="st1" width="43.9" height="68.6"/>
		<rect x="151.4" y="154.1" width="43.7" height="30.2"/>
		<polygon class="st2" points="100.6,60.5 151,92.3 212.9,67.8 162,35.8 		"/>
		<polygon class="st3" points="150.7,63.6 156.1,67.1 162.8,64.4 157.3,61 		"/>
		<polygon points="100.5,60.5 100.9,128.2 151.3,160.3 151.1,92.3 		"/>
		<polygon class="st3" points="122.8,104.3 122.8,112.6 129,116.5 129,108.2 		"/>
		<polygon class="st1" points="150.9,92.3 212.7,67.9 212.9,135.7 151.3,160.5 		"/>
		<polygon class="st3" points="178.4,111.6 185.5,108.8 185.5,116.7 178.4,119.5 		"/>
		<polygon class="st4" points="185.5,116.7 178.4,112.3 178.4,119.5 		"/>
		<polygon class="st4" points="122.8,112.6 129,109 129,116.6 		"/>
		<g>
			<polygon class="st2" points="39.2,152.9 89.5,184.7 151.4,160.2 100.6,128.2 			"/>
			<polygon class="st3" points="89.3,156 94.7,159.5 101.3,156.8 95.9,153.4 			"/>
			<polygon points="39.1,152.9 39.4,220.6 89.9,252.7 89.7,184.7 			"/>
			<polygon class="st3" points="61.3,196.7 61.4,205 67.6,208.9 67.6,200.6 			"/>
			<polygon class="st1" points="89.5,184.7 151.3,160.3 151.5,228.1 89.9,252.9 			"/>
			<polygon class="st3" points="116.9,204 124,201.2 124.1,209.1 116.9,211.9 			"/>
			<polygon class="st4" points="124.1,209.1 116.9,204.7 116.9,211.9 			"/>
			<polygon class="st4" points="61.4,205 67.6,201.4 67.6,209 			"/>
		</g>
		<g>
			<polygon class="st2" points="151.4,160.2 201.8,192 263.7,167.5 212.8,135.5 			"/>
			<polygon class="st3" points="201.5,163.4 206.9,166.8 213.6,164.2 208.1,160.7 			"/>
			<polygon points="151.3,160.3 151.7,227.9 202.1,260 201.9,192 			"/>
			<polygon class="st3" points="173.6,204 173.6,212.3 179.8,216.3 179.8,207.9 			"/>
			<polygon class="st1" points="201.8,192 263.5,167.6 263.7,235.5 202.1,260.2 			"/>
			<polygon class="st3" points="229.2,211.4 236.3,208.6 236.3,216.4 229.2,219.3 			"/>
			<polygon class="st4" points="236.3,216.4 229.2,212.1 229.2,219.3 			"/>
			<polygon class="st4" points="173.6,212.3 179.8,208.8 179.8,216.3 			"/>
		</g>
	</g>
	<g>
		<rect x="142.2" y="159.5" class="st1" width="43.9" height="68.7"/>
		<rect x="151.4" y="154.1" width="43.8" height="30.2"/>
		<polygon class="st2" points="100.6,60.4 151,92.2 212.9,67.7 162,35.6 		"/>
		<polygon class="st3" points="150.7,63.5 156.1,66.9 162.8,64.3 157.3,60.9 		"/>
		<polygon points="100.4,60.4 100.8,128.2 151.3,160.3 151.1,92.2 		"/>
		<polygon class="st3" points="122.8,104.2 122.8,112.5 129,116.5 129,108.1 		"/>
		<polygon class="st1" points="150.9,92.2 212.8,67.8 213,135.7 151.3,160.5 		"/>
		<polygon class="st3" points="178.4,111.6 185.5,108.8 185.6,116.6 178.4,119.5 		"/>
		<polygon class="st4" points="185.6,116.6 178.4,112.3 178.4,119.5 		"/>
		<polygon class="st4" points="122.8,112.5 129,109 129,116.5 		"/>
		<g>
			<polygon class="st2" points="39,152.9 89.5,184.7 151.4,160.2 100.5,128.2 			"/>
			<polygon class="st3" points="89.2,156.1 94.6,159.5 101.2,156.9 95.8,153.4 			"/>
			<polygon points="38.9,152.9 39.3,220.7 89.8,252.8 89.6,184.7 			"/>
			<polygon class="st3" points="61.2,196.8 61.3,205.1 67.5,209 67.4,200.7 			"/>
			<polygon class="st1" points="89.4,184.7 151.3,160.3 151.5,228.2 89.8,253 			"/>
			<polygon class="st3" points="116.9,204.1 124,201.3 124,209.1 116.9,212 			"/>
			<polygon class="st4" points="124,209.1 116.9,204.8 116.9,212 			"/>
			<polygon class="st4" points="61.3,205.1 67.4,201.5 67.5,209 			"/>
		</g>
		<g>
			<polygon class="st2" points="151.4,160.2 201.9,192.1 263.8,167.6 212.9,135.5 			"/>
			<polygon class="st3" points="201.6,163.4 207,166.8 213.7,164.2 208.2,160.8 			"/>
			<polygon points="151.3,160.3 151.7,228 202.2,260.2 202,192.1 			"/>
			<polygon class="st3" points="173.6,204.1 173.7,212.4 179.9,216.4 179.9,208 			"/>
			<polygon class="st1" points="201.8,192.1 263.7,167.6 263.9,235.6 202.2,260.4 			"/>
			<polygon class="st3" points="229.3,211.5 236.4,208.6 236.4,216.5 229.3,219.4 			"/>
			<polygon class="st4" points="236.4,216.5 229.3,212.2 229.3,219.4 			"/>
			<polygon class="st4" points="173.7,212.4 179.9,208.9 179.9,216.4 			"/>
		</g>
	</g>
</g>
</svg>
